<svg xmlns="http://www.w3.org/2000/svg" viewBox="0 0 378.7 88"><defs><style>.cls-1{fill:#005eb8;}.cls-2{fill:#00c389;}</style></defs><g id="Capa_2" data-name="Capa 2"><g id="logos"><path class="cls-1" d="M129.58,44.92a7.83,7.83,0,0,1,1.5,4.94,6.58,6.58,0,0,1-1.2,3.8,9.87,9.87,0,0,1-3.37,3A43.16,43.16,0,0,1,117,60.16a40.67,40.67,0,0,1-10,1.38,35.82,35.82,0,0,1-16.8-3.73,26.06,26.06,0,0,1-11-10.66,32.91,32.91,0,0,1-3.86-16.32,33.58,33.58,0,0,1,3.73-16A27.47,27.47,0,0,1,89.41,3.91,29.15,29.15,0,0,1,104.47,0a27.63,27.63,0,0,1,14.15,3.55,24.28,24.28,0,0,1,9.45,10.12A33.18,33.18,0,0,1,131.45,29a5.8,5.8,0,0,1-1.27,4,4.58,4.58,0,0,1-3.55,1.39H92.91c.56,4.73,2,8.17,4.33,10.29s5.66,3.19,10,3.19a21.56,21.56,0,0,0,6.26-.84,58.42,58.42,0,0,0,6.14-2.29c1.13-.48,2.21-.9,3.25-1.26a8.69,8.69,0,0,1,2.77-.54,4.76,4.76,0,0,1,3.92,1.92M96.64,15.84q-3.14,3.32-3.73,9.57h23.24Q115.79,19,113,15.78t-8-3.25a10.9,10.9,0,0,0-8.31,3.31"/><path class="cls-1" d="M195.28,6.2q5.17,6.21,5.18,18.73V52.75A8.13,8.13,0,0,1,198,59a9.45,9.45,0,0,1-6.69,2.29A9.19,9.19,0,0,1,184.68,59a8.2,8.2,0,0,1-2.41-6.26v-27q0-6-2.23-8.79c-1.49-1.84-3.79-2.77-6.92-2.77a12,12,0,0,0-9.1,3.62c-2.29,2.4-3.43,5.62-3.43,9.63V52.75A8.2,8.2,0,0,1,158.18,59a9.2,9.2,0,0,1-6.62,2.29A9.45,9.45,0,0,1,144.87,59a8.13,8.13,0,0,1-2.47-6.26V8.55a7.67,7.67,0,0,1,2.59-6A9.77,9.77,0,0,1,151.68.24a8.46,8.46,0,0,1,6.08,2.23,7.52,7.52,0,0,1,2.35,5.72V9.88a20.8,20.8,0,0,1,8.13-7.35A24.51,24.51,0,0,1,179.5,0q10.59,0,15.78,6.2"/><path class="cls-1" d="M265.43,44.92a7.84,7.84,0,0,1,1.51,4.94,6.6,6.6,0,0,1-1.21,3.8,9.87,9.87,0,0,1-3.37,3,43.16,43.16,0,0,1-9.52,3.55,40.67,40.67,0,0,1-10,1.38,35.82,35.82,0,0,1-16.8-3.73,26.12,26.12,0,0,1-11-10.66,33,33,0,0,1-3.86-16.32,33.47,33.47,0,0,1,3.74-16,27.38,27.38,0,0,1,10.35-10.9A29.15,29.15,0,0,1,240.32,0a27.63,27.63,0,0,1,14.15,3.55,24.22,24.22,0,0,1,9.45,10.12A33.18,33.18,0,0,1,267.3,29a5.75,5.75,0,0,1-1.27,4,4.58,4.58,0,0,1-3.55,1.39H228.76c.56,4.73,2,8.17,4.33,10.29s5.66,3.19,10,3.19a21.56,21.56,0,0,0,6.26-.84,57.6,57.6,0,0,0,6.14-2.29c1.13-.48,2.21-.9,3.26-1.26a8.59,8.59,0,0,1,2.77-.54,4.75,4.75,0,0,1,3.91,1.92M232.49,15.84q-3.13,3.32-3.73,9.57H252q-.36-6.37-3.19-9.63t-8-3.25a10.9,10.9,0,0,0-8.31,3.31"/><path class="cls-1" d="M319.26,1.65a7.1,7.1,0,0,1,2.11,5.6q0,4-1.92,5.91t-6.87,2.4l-3.61.36q-6.63.74-9.58,4.34a14.17,14.17,0,0,0-2.95,9.27v23a7.83,7.83,0,0,1-2.59,6.38,9.67,9.67,0,0,1-6.44,2.17,9.88,9.88,0,0,1-6.57-2.17,7.85,7.85,0,0,1-2.58-6.38V8.34a7.5,7.5,0,0,1,2.65-6.15A9.76,9.76,0,0,1,287.29,0a8.79,8.79,0,0,1,6,2.11A7.33,7.33,0,0,1,295.72,8v3.25a16.74,16.74,0,0,1,6.56-8A20.29,20.29,0,0,1,311.86.15L313.54,0a7.53,7.53,0,0,1,5.72,1.62"/><path class="cls-1" d="M372.44,6.32q6.26,6.33,6.26,19.33V52.87a8.27,8.27,0,0,1-2.29,6.21A8.78,8.78,0,0,1,370,61.3a8.35,8.35,0,0,1-6.2-2.35,8.2,8.2,0,0,1-2.35-6.08V52a14.26,14.26,0,0,1-6,7,18.87,18.87,0,0,1-9.87,2.52,24.33,24.33,0,0,1-10.9-2.4A19.17,19.17,0,0,1,327,52.39a17.22,17.22,0,0,1-2.83-9.63q0-6.51,3.31-10.24t10.66-5.42q7.35-1.68,20.11-1.69h3.14V23.25c0-3.38-.75-5.83-2.23-7.35s-4-2.29-7.41-2.29-8.43,1.2-14.93,3.61a11.31,11.31,0,0,1-4.7,1.33,5.22,5.22,0,0,1-4.22-1.87,7.35,7.35,0,0,1-1.56-4.88,6.83,6.83,0,0,1,1.08-4,10.08,10.08,0,0,1,3.5-2.89,38.62,38.62,0,0,1,10.29-3.61,55.83,55.83,0,0,1,12-1.33q13,0,19.27,6.32M358.1,45.47a13.12,13.12,0,0,0,3.26-9.22v-2h-2.05q-9.76,0-13.67,1.57a5.67,5.67,0,0,0-3.92,5.66A7.21,7.21,0,0,0,344,46.91a7.81,7.81,0,0,0,5.6,2.11,11,11,0,0,0,8.55-3.55"/><path class="cls-1" d="M36.42,0H30.35a30.35,30.35,0,1,0,0,60.69h6.07A30.35,30.35,0,1,0,36.42,0M34.9,45.44a15.16,15.16,0,0,1-1.52.08,15,15,0,0,1-1.51-.08,15.17,15.17,0,0,1,0-30.19,15,15,0,0,1,1.51-.08A15.17,15.17,0,0,1,34.9,45.44"/><path class="cls-2" d="M65.21,63.74a6,6,0,0,1-.37,2.08c-.1.32-.22.63-.35.94-.23.61-.48,1.2-.75,1.79-.2.42-.4.84-.61,1.25a31.44,31.44,0,0,1-1.76,3c-.21.34-.44.66-.67,1-.49.71-1,1.38-1.56,2.05s-1,1.13-1.47,1.66-.9.93-1.37,1.37-1.09,1-1.67,1.47-1.34,1.07-2,1.57c-.33.23-.65.45-1,.66a31.6,31.6,0,0,1-3,1.76c-.4.21-.82.42-1.24.61-.59.27-1.18.53-1.79.76-1,.39-2,.72-3,1a30.31,30.31,0,0,1-3,.7,30.45,30.45,0,0,1-3,.42c-.87.08-1.76.12-2.64.13H33c-.89,0-1.78,0-2.65-.13a30.45,30.45,0,0,1-3-.42,30.31,30.31,0,0,1-3-.7c-1-.3-2.05-.63-3-1-.61-.23-1.2-.49-1.79-.76-.42-.19-.84-.4-1.24-.61a31.6,31.6,0,0,1-3-1.76c-.34-.21-.66-.43-1-.66-.7-.5-1.38-1-2-1.57s-1.13-1-1.67-1.47-.93-.9-1.37-1.37-1-1.09-1.47-1.66-1.07-1.34-1.56-2.05c-.16-.22-.31-.43-.45-.65l-.17-.25a6.13,6.13,0,0,1-.87-3.15,6.07,6.07,0,0,1,5.45-6c.21,0,.42,0,.63,0h.2l.42,0,.23,0a6.12,6.12,0,0,1,3.84,2.15h0a1.56,1.56,0,0,1,.16.2l0,0q.17.27.36.54l.06.09a21,21,0,0,0,2.26,2.73l.31.3a21,21,0,0,0,2.72,2.26c.39.27.78.53,1.19.78h0a18,18,0,0,0,1.84,1,19.78,19.78,0,0,0,3,1.17,20.29,20.29,0,0,0,3,.67,22,22,0,0,0,6.06,0h0l.16,0h0l.5-.07.05,0a3.89,3.89,0,0,0,.47-.09l.12,0,.3-.07.3-.07a2,2,0,0,0,.31-.08l.16,0,.35-.09.25-.08h0a19.78,19.78,0,0,0,3-1.17,18,18,0,0,0,1.84-1h0c.41-.25.8-.51,1.19-.78a21.83,21.83,0,0,0,2.73-2.26l.3-.3a21,21,0,0,0,2.26-2.73q.42-.58.78-1.2a20.11,20.11,0,0,0,1-1.83h0c.25-.53.48-1.07.69-1.63.1-.25.18-.51.27-.77l.16-.34a6.08,6.08,0,0,1,4.47-3.25h0a7.45,7.45,0,0,1,1-.07,6.08,6.08,0,0,1,6.08,6.08"/></g></g></svg>